# Blender v2.77 (sub 0) OBJ File: ''
# www.blender.org
o Cube
v -0.232789 -0.916551 -0.209379
v 0.172286 -0.812038 -0.321865
v -0.029407 -1.002218 0.177429
v -0.722970 -1.096042 -0.050373
v -0.385442 -0.698398 -0.543861
v -0.001325 -0.534913 -0.483564
v 0.345362 -0.914489 -0.003144
v -0.454184 -1.128613 0.421648
v -0.845827 -0.796855 -0.467236
v 0.562391 1.021920 0.560211
v 0.082860 1.129719 0.118122
v -0.056888 1.230814 0.795526
v 1.108427 0.983686 1.037174
v 1.109590 0.706520 0.294725
v 0.576977 0.737442 -0.004877
v -0.452301 1.284668 0.306804
v 0.437916 1.151096 1.310411
v 1.563392 0.624511 0.661971
v 1.334134 -0.280779 -0.388835
v 0.931168 -0.035787 -0.517900
v 1.561100 0.024086 -0.241449
v 1.754125 -0.658492 -0.260212
v 0.971252 -0.498107 -0.423902
v 0.653032 -0.239078 -0.450574
v 1.085230 0.215784 -0.389328
v 2.048600 -0.210093 -0.040929
v 1.225763 -0.823596 -0.263684
v 0.943008 -0.501202 1.216224
v 1.354987 -0.624390 0.783913
v 1.219692 -0.108584 1.395267
v 0.414040 -0.429682 1.720659
v 0.590752 -0.767375 0.922386
v 0.943959 -0.714760 0.538496
v 1.609952 -0.275326 0.952256
v 0.681683 0.082764 1.860407
v 0.139937 -0.732722 1.285699
v -1.217908 0.294704 0.730744
v -0.768639 0.142251 1.236240
v -1.093770 0.812791 0.926583
v -1.723096 0.404980 0.197147
v -1.151205 -0.207006 0.476927
v -0.705014 -0.241381 0.871579
v -0.611155 0.599710 1.369880
v -1.554598 1.005282 0.403442
v -1.510071 -0.133281 -0.009336
v -0.614076 0.487302 -0.847275
v -0.073578 0.354173 -0.750265
v -0.583644 0.052579 -0.898876
v -1.235576 0.613712 -1.003892
v -0.546684 0.865514 -0.646657
v -0.039333 0.600000 -0.509477
v -0.111280 0.015548 -0.788812
v -1.135533 0.035256 -1.025246
v -1.072724 1.072313 -0.659783
v 0.379333 -0.466166 -0.588609
v 0.572234 -0.674965 -0.407041
v 0.726026 -0.760327 -0.110257
v -0.126533 -0.254310 -0.534442
v -0.497090 -0.371197 -0.795634
v -0.936473 -0.406411 -0.764590
v 0.330975 -0.079122 -0.690475
v 0.463289 0.183835 -0.647441
v 0.534344 0.404504 -0.470878
v 0.601234 -0.985659 0.313893
v 0.239665 -0.949484 0.569024
v -0.166781 -1.090150 0.911401
v 1.199960 -0.806786 0.186184
v 1.628185 -0.675701 0.307125
v 1.783453 -0.313740 0.464248
v -0.623699 -0.623985 0.588704
v -0.956078 -0.643493 0.211977
v -1.098697 -0.457954 -0.195845
v -0.323640 -0.416220 1.223905
v -0.210220 -0.065185 1.572404
v -0.008421 0.341399 1.580627
v -1.349674 0.056979 -0.506079
v -1.506838 0.529367 -0.448803
v -1.306899 0.907868 -0.199569
v 0.919095 0.356796 -0.090479
v 1.497473 0.366252 0.010282
v 1.867629 0.233022 0.302380
v 0.202609 0.863306 -0.377183
v -0.321773 1.117592 -0.320748
v -0.778620 1.163274 -0.152175
v 1.655624 0.160033 0.934934
v 1.275880 0.389492 1.319656
v 0.650876 0.527360 1.452310
v -0.262757 1.146024 1.573502
v -0.681782 1.202513 0.961965
v -0.999407 1.299617 0.443710
v 0.217703 -0.289424 -0.695767
v 0.847872 -0.891576 0.113535
v -0.387372 -0.671724 0.905266
v -1.160634 -0.287118 -0.484497
v 0.607642 0.622000 -0.391742
v 1.836987 0.017168 0.598868
v 0.149767 0.657506 1.559336
v -1.077446 1.203200 0.005307
vt 0.5000 0.5000
vt 0.2500 0.2500
vt 0.5000 0.2500
vt 0.2500 0.0000
vt 0.5000 0.0000
vt 0.2500 0.5000
vt 0.0000 0.2500
vt 0.0000 0.0000
vt 0.7500 0.5000
vt 0.7500 0.2500
vt 1.0000 0.5000
vt 1.0000 0.0000
vt 1.0000 0.2500
vt 0.7500 0.7500
vt 0.5000 0.7500
vt 0.5000 1.0000
vt 1.0000 1.0000
vt 0.7500 1.0000
vt 0.2500 0.7500
vt 0.0000 0.5000
vt 0.0000 1.0000
vt 0.0000 0.7500
vt 0.5000 0.5000
vt 0.2500 0.2500
vt 0.5000 0.2500
vt 0.2500 0.0000
vt 0.5000 0.0000
vt 0.2500 0.5000
vt 0.0000 0.2500
vt 0.0000 0.0000
vt 0.7500 0.5000
vt 0.7500 0.2500
vt 1.0000 0.5000
vt 0.7500 0.0000
vt 1.0000 0.2500
vt 0.7500 0.7500
vt 0.5000 0.7500
vt 0.7500 1.0000
vt 0.5000 1.0000
vt 1.0000 0.7500
vt 1.0000 1.0000
vt 0.2500 0.7500
vt 0.0000 0.5000
vt 0.0000 1.0000
vt 0.0000 0.7500
vt 0.2500 0.5000
vt 0.5000 0.2500
vt 0.5000 0.5000
vt 0.2500 0.2500
vt 0.5000 0.0000
vt 0.0000 0.5000
vt 0.0000 0.2500
vt 0.2500 0.0000
vt 0.7500 0.2500
vt 0.7500 0.5000
vt 1.0000 0.5000
vt 0.7500 0.0000
vt 1.0000 0.2500
vt 0.5000 0.7500
vt 0.7500 0.7500
vt 0.5000 1.0000
vt 1.0000 0.7500
vt 0.7500 1.0000
vt 0.2500 0.7500
vt 0.0000 0.7500
vt 0.2500 1.0000
vt 0.0000 1.0000
vt 0.5000 0.5000
vt 0.2500 0.2500
vt 0.5000 0.2500
vt 0.2500 0.0000
vt 0.5000 0.0000
vt 0.2500 0.5000
vt 0.0000 0.2500
vt 0.0000 0.0000
vt 0.7500 0.2500
vt 0.7500 0.5000
vt 1.0000 0.2500
vt 1.0000 0.5000
vt 0.7500 0.0000
vt 1.0000 0.0000
vt 0.7500 0.7500
vt 0.5000 0.7500
vt 0.7500 1.0000
vt 0.5000 1.0000
vt 1.0000 0.7500
vt 0.2500 0.7500
vt 0.0000 0.5000
vt 0.0000 1.0000
vt 0.0000 0.7500
vt 0.5000 0.5000
vt 0.2500 0.2500
vt 0.5000 0.2500
vt 0.2500 0.0000
vt 0.5000 0.0000
vt 0.2500 0.5000
vt 0.0000 0.2500
vt 0.0000 0.0000
vt 0.7500 0.5000
vt 0.7500 0.2500
vt 1.0000 0.0000
vt 1.0000 0.2500
vt 0.7500 0.7500
vt 0.5000 0.7500
vt 0.7500 1.0000
vt 0.5000 1.0000
vt 1.0000 0.7500
vt 1.0000 1.0000
vt 0.0000 0.7500
vt 0.0000 0.5000
vt 0.2500 0.7500
vt 0.5000 0.5000
vt 0.2500 0.2500
vt 0.5000 0.2500
vt 0.0000 0.5000
vt 0.2500 0.5000
vt 0.0000 0.2500
vt 0.2500 0.0000
vt 0.7500 0.5000
vt 0.7500 0.2500
vt 1.0000 0.5000
vt 0.7500 0.0000
vt 1.0000 0.0000
vt 1.0000 0.2500
vt 0.7500 0.7500
vt 0.5000 0.7500
vt 0.7500 1.0000
vt 1.0000 0.7500
vt 1.0000 1.0000
vt 0.2500 0.7500
vt 0.0000 0.7500
vt 0.2500 1.0000
vt 0.7500 0.0000
vt 1.0000 0.7500
vt 0.2500 1.0000
vt 1.0000 0.0000
vt 0.2500 1.0000
vt 1.0000 0.0000
vt 1.0000 1.0000
vt 0.2500 1.0000
vt 0.7500 0.0000
vt 0.2500 1.0000
vt 0.0000 1.0000
vn -0.0913 -0.5439 -0.8342
vn 0.0501 -0.6286 -0.7761
vn 0.1923 -0.0914 -0.9771
vn -0.1143 -0.5894 -0.7997
vn 0.1616 -0.9422 -0.2936
vn 0.2191 -0.9755 -0.0192
vn 0.2184 -0.8883 -0.4041
vn 0.1137 -0.9458 -0.3041
vn 0.2719 -0.9370 -0.2195
vn -0.7209 -0.5859 0.3701
vn 0.2593 -0.9646 -0.0483
vn -0.7564 -0.4201 0.5014
vn 0.0800 -0.8178 -0.5699
vn -0.0014 -0.6101 -0.7923
vn -0.8989 -0.4355 -0.0476
vn -0.7705 -0.4897 -0.4081
vn 0.5178 0.7694 -0.3740
vn 0.3734 0.8516 -0.3678
vn 0.4335 0.5501 -0.7138
vn 0.4945 0.8428 -0.2123
vn 0.2903 0.9534 -0.0824
vn -0.0130 0.9927 0.1199
vn 0.2019 0.9561 -0.2125
vn -0.0321 0.9717 -0.2342
vn 0.1873 0.9728 -0.1364
vn 0.2818 0.4756 0.8333
vn 0.0371 0.9923 0.1180
vn 0.2733 0.3012 0.9136
vn 0.3476 0.8786 -0.3275
vn 0.4456 0.8159 -0.3684
vn 0.7521 0.4436 0.4873
vn 0.8678 0.3548 0.3480
vn 0.2000 -0.1785 -0.9634
vn 0.0677 -0.3959 -0.9158
vn 0.0022 -0.0998 -0.9950
vn 0.5416 -0.1500 -0.8271
vn 0.3567 0.1779 -0.9171
vn 0.4459 0.5828 -0.6794
vn 0.2446 0.3183 -0.9159
vn 0.3460 0.9080 -0.2361
vn 0.4018 0.1385 -0.9052
vn 0.7885 -0.5946 0.1570
vn 0.5345 0.6431 -0.5484
vn 0.8853 0.0013 0.4650
vn 0.2484 -0.2644 -0.9319
vn 0.3522 -0.8350 -0.4227
vn 0.2975 -0.9533 0.0527
vn -0.2335 -0.8889 -0.3941
vn 0.0302 -0.9533 0.3004
vn 0.2247 -0.9467 0.2306
vn 0.4581 -0.8342 0.3071
vn 0.1503 -0.9244 0.3506
vn 0.4613 -0.6162 0.6383
vn 0.7187 0.0244 0.6949
vn 0.6962 -0.6527 0.2989
vn 0.8649 -0.0710 0.4969
vn 0.5707 -0.4798 0.6664
vn -0.1892 0.0741 0.9791
vn 0.6614 0.0391 0.7490
vn -0.0465 0.6737 0.7375
vn 0.2840 -0.8550 0.4340
vn 0.1758 -0.9352 0.3073
vn -0.4819 -0.5468 0.6847
vn -0.5812 -0.2953 0.7583
vn -0.6998 -0.5497 0.4562
vn -0.5767 -0.4742 0.6653
vn -0.5715 -0.5629 0.5971
vn -0.7041 -0.4786 0.5246
vn -0.7556 -0.0653 0.6518
vn -0.4889 0.4489 0.7480
vn -0.5319 -0.0636 0.8444
vn -0.2207 -0.2139 0.9516
vn -0.7290 -0.0304 0.6839
vn -0.8208 0.5454 -0.1698
vn -0.4057 0.6821 0.6084
vn -0.5982 0.7153 -0.3613
vn -0.7072 -0.3918 0.5886
vn -0.8839 -0.4566 0.1013
vn -0.9097 -0.2265 -0.3482
vn -0.6687 -0.6938 -0.2672
vn 0.2864 0.6498 -0.7041
vn 0.3348 0.6351 -0.6961
vn 0.4646 0.5159 -0.7197
vn 0.1697 0.3135 -0.9343
vn 0.2060 0.1295 -0.9699
vn 0.2085 -0.1911 -0.9592
vn 0.2334 0.0843 -0.9687
vn -0.3834 -0.6219 -0.6828
vn 0.2589 0.0803 -0.9626
vn -0.8599 -0.2309 -0.4553
vn 0.2149 -0.4227 -0.8804
vn -0.8220 -0.4716 -0.3193
vn 0.1922 0.4329 -0.8807
vn -0.1218 0.8240 -0.5533
vn -0.7976 0.5168 -0.3112
vn -0.4402 0.8929 0.0950
vn 0.3874 -0.6812 -0.6211
vn -0.1257 -0.5576 -0.8206
vn 0.6111 -0.3411 -0.7143
vn -0.4271 -0.3423 -0.8369
vn 0.0590 -0.9406 -0.3344
vn -0.1618 -0.9827 -0.0900
vn 0.2511 -0.8879 -0.3855
vn 0.1681 -0.8077 -0.5652
vn 0.1246 -0.9529 -0.2765
vn -0.6672 -0.4263 0.6108
vn 0.2651 -0.9609 -0.0801
vn -0.7757 -0.4018 0.4867
vn 0.0968 -0.7949 -0.5990
vn -0.0075 -0.6070 -0.7947
vn -0.7992 -0.6011 0.0060
vn -0.8417 -0.5242 -0.1296
vn 0.2886 0.8582 -0.4246
vn 0.5503 0.7836 -0.2884
vn 0.1099 0.7082 -0.6974
vn 0.7193 0.6793 -0.1457
vn 0.2465 0.9647 -0.0931
vn 0.0635 0.9872 0.1460
vn 0.0018 0.9664 -0.2569
vn 0.0158 0.9759 -0.2175
vn 0.2767 0.9536 -0.1183
vn 0.4262 0.3365 0.8397
vn -0.0174 0.9944 0.1038
vn 0.3379 0.2591 0.9048
vn 0.4118 0.8539 -0.3181
vn 0.5517 0.7547 -0.3549
vn 0.7568 0.4363 0.4867
vn 0.8761 0.3615 0.3191
vn -0.0857 -0.2056 -0.9749
vn 0.5460 -0.1396 -0.8261
vn 0.5603 -0.1845 -0.8075
vn 0.3914 -0.1882 -0.9008
vn 0.4090 0.2041 -0.8894
vn 0.0549 0.9144 -0.4010
vn 0.4344 0.4733 -0.7664
vn 0.7042 0.0209 -0.7097
vn 0.4361 0.1477 -0.8877
vn 0.8099 -0.4884 0.3249
vn 0.6344 0.5312 -0.5616
vn 0.9878 -0.1553 -0.0110
vn 0.0811 -0.2393 -0.9676
vn -0.3031 -0.6010 -0.7395
vn 0.2838 -0.9583 0.0339
vn 0.2242 -0.9733 0.0492
vn 0.4249 -0.8632 0.2726
vn 0.0427 -0.9586 0.2814
vn 0.1442 -0.9306 0.3363
vn 0.5053 -0.8313 0.2316
vn 0.4605 -0.6353 0.6199
vn 0.7398 -0.0509 0.6709
vn 0.7203 -0.5121 0.4679
vn 0.8962 -0.2837 0.3410
vn 0.3931 -0.5962 0.7000
vn -0.3903 -0.0469 0.9195
vn 0.2924 0.6576 0.6943
vn 0.2002 -0.0343 0.9792
vn 0.2847 -0.8614 0.4207
vn 0.5346 -0.7854 0.3119
vn -0.4645 -0.5438 0.6989
vn -0.5043 -0.6217 0.5993
vn -0.6196 -0.4184 0.6641
vn -0.6867 -0.5574 0.4666
vn -0.5869 -0.5954 0.5487
vn -0.7281 -0.5008 0.4680
vn -0.6727 0.0155 0.7398
vn -0.7775 0.2874 0.5593
vn -0.2813 0.1204 0.9520
vn -0.2508 0.1894 0.9493
vn -0.7602 -0.0623 0.6467
vn -0.8355 0.3732 -0.4035
vn -0.6195 0.6101 0.4940
vn -0.4591 0.8813 -0.1121
vn -0.7408 -0.4753 0.4747
vn -0.5219 -0.8118 0.2621
vn -0.8895 -0.2495 -0.3828
vn -0.7810 -0.4559 -0.4268
vn 0.4169 0.3669 -0.8317
vn 0.2433 0.5570 -0.7941
vn 0.0866 0.3826 -0.9198
vn 0.1423 0.2958 -0.9446
vn 0.2324 0.0844 -0.9690
vn 0.5851 -0.5735 -0.5734
vn 0.2051 0.0567 -0.9771
vn 0.1994 -0.0828 -0.9764
vn 0.2174 0.1300 -0.9674
vn -0.9168 -0.1448 -0.3721
vn -0.0487 -0.2458 -0.9681
vn -0.7494 -0.5528 -0.3643
vn 0.3058 0.4995 -0.8105
vn 0.3494 0.8660 -0.3576
vn -0.8018 0.5603 -0.2078
vn -0.2681 0.6810 -0.6814
s off
f 1/1/1 6/2/1 2/3/1
f 2/3/2 55/4/2 56/5/2
f 5/6/3 58/7/3 6/2/3
f 6/2/4 91/8/4 55/4/4
f 2/3/5 3/9/5 1/1/5
f 7/10/6 65/11/6 3/9/6
f 56/5/7 7/10/7 2/3/7
f 7/10/8 92/12/8 64/13/8
f 1/1/9 8/14/9 4/15/9
f 8/14/10 71/16/10 4/15/10
f 65/11/11 8/14/11 3/9/11
f 8/14/12 93/17/12 70/18/12
f 1/1/13 9/19/13 5/6/13
f 9/19/14 59/20/14 5/6/14
f 71/16/15 9/19/15 4/15/15
f 9/19/16 94/21/16 60/22/16
f 10/23/17 15/24/17 11/25/17
f 11/25/18 82/26/18 83/27/18
f 14/28/19 79/29/19 15/24/19
f 15/24/20 95/30/20 82/26/20
f 11/25/21 12/31/21 10/23/21
f 16/32/22 89/33/22 12/31/22
f 83/27/23 16/32/23 11/25/23
f 84/34/24 90/35/24 16/32/24
f 10/23/25 17/36/25 13/37/25
f 13/37/26 87/38/26 86/39/26
f 12/31/27 88/40/27 17/36/27
f 17/36/28 97/41/28 87/38/28
f 13/37/29 14/28/29 10/23/29
f 18/42/30 80/43/30 14/28/30
f 86/39/31 18/42/31 13/37/31
f 18/42/32 96/44/32 81/45/32
f 23/46/33 20/47/33 19/48/33
f 24/49/34 62/50/34 20/47/34
f 56/51/35 24/49/35 23/46/35
f 55/52/36 61/53/36 24/49/36
f 19/48/37 25/54/37 21/55/37
f 25/54/38 80/56/38 21/55/38
f 20/47/39 63/57/39 25/54/39
f 63/57/40 79/58/40 25/54/40
f 21/55/41 22/59/41 19/48/41
f 26/60/42 68/61/42 22/59/42
f 21/55/43 81/62/43 26/60/43
f 81/62/44 69/63/44 26/60/44
f 19/48/45 27/64/45 23/46/45
f 23/46/46 57/65/46 56/51/46
f 22/59/47 67/66/47 27/64/47
f 27/64/48 92/67/48 57/65/48
f 28/68/49 33/69/49 29/70/49
f 29/70/50 67/71/50 68/72/50
f 32/73/51 64/74/51 33/69/51
f 33/69/52 92/75/52 67/71/52
f 28/68/53 34/76/53 30/77/53
f 30/77/54 85/78/54 86/79/54
f 29/70/55 69/80/55 34/76/55
f 34/76/56 96/81/56 85/78/56
f 28/68/57 35/82/57 31/83/57
f 31/83/58 75/84/58 74/85/58
f 86/79/59 35/82/59 30/77/59
f 87/86/60 75/84/60 35/82/60
f 28/68/61 36/87/61 32/73/61
f 36/87/62 65/88/62 32/73/62
f 74/85/63 36/87/63 31/83/63
f 36/87/64 93/89/64 66/90/64
f 37/91/65 42/92/65 38/93/65
f 38/93/66 73/94/66 74/95/66
f 41/96/67 70/97/67 42/92/67
f 42/92/68 93/98/68 73/94/68
f 38/93/69 39/99/69 37/91/69
f 43/100/70 89/33/70 39/99/70
f 74/95/71 43/100/71 38/93/71
f 43/100/72 97/101/72 88/102/72
f 37/91/73 44/103/73 40/104/73
f 40/104/74 78/105/74 77/106/74
f 39/99/75 90/107/75 44/103/75
f 44/103/76 98/108/76 78/105/76
f 40/104/77 41/96/77 37/91/77
f 41/96/78 72/109/78 71/110/78
f 77/106/79 45/111/79 40/104/79
f 45/111/80 94/21/80 72/109/80
f 46/112/81 51/113/81 47/114/81
f 51/113/82 62/50/82 47/114/82
f 83/115/83 51/113/83 50/116/83
f 82/117/84 63/118/84 51/113/84
f 47/114/85 48/119/85 46/112/85
f 52/120/86 59/121/86 48/119/86
f 47/114/87 61/122/87 52/120/87
f 52/120/88 91/123/88 58/124/88
f 46/112/89 53/125/89 49/126/89
f 49/126/90 76/127/90 77/106/90
f 48/119/91 60/128/91 53/125/91
f 53/125/92 94/129/92 76/127/92
f 46/112/93 54/130/93 50/116/93
f 50/116/94 84/131/94 83/115/94
f 77/106/95 54/130/95 49/126/95
f 78/132/96 84/131/96 54/130/96
f 1/1/97 5/6/97 6/2/97
f 2/3/98 6/2/98 55/4/98
f 5/6/99 59/20/99 58/7/99
f 6/2/100 58/7/100 91/8/100
f 2/3/101 7/10/101 3/9/101
f 7/10/102 64/13/102 65/11/102
f 56/5/103 57/133/103 7/10/103
f 7/10/104 57/133/104 92/12/104
f 1/1/105 3/9/105 8/14/105
f 8/14/106 70/18/106 71/16/106
f 65/11/107 66/134/107 8/14/107
f 8/14/108 66/134/108 93/17/108
f 1/1/109 4/15/109 9/19/109
f 9/19/110 60/22/110 59/20/110
f 71/16/111 72/135/111 9/19/111
f 9/19/112 72/135/112 94/21/112
f 10/23/113 14/28/113 15/24/113
f 11/25/114 15/24/114 82/26/114
f 14/28/115 80/43/115 79/29/115
f 15/24/116 79/29/116 95/30/116
f 11/25/117 16/32/117 12/31/117
f 16/32/118 90/35/118 89/33/118
f 83/27/119 84/34/119 16/32/119
f 84/34/120 98/136/120 90/35/120
f 10/23/121 12/31/121 17/36/121
f 13/37/122 17/36/122 87/38/122
f 12/31/123 89/33/123 88/40/123
f 17/36/124 88/40/124 97/41/124
f 13/37/125 18/42/125 14/28/125
f 18/42/126 81/45/126 80/43/126
f 86/39/127 85/137/127 18/42/127
f 18/42/128 85/137/128 96/44/128
f 23/46/129 24/49/129 20/47/129
f 24/49/130 61/53/130 62/50/130
f 56/51/131 55/52/131 24/49/131
f 55/52/132 91/8/132 61/53/132
f 19/48/133 20/47/133 25/54/133
f 25/54/134 79/58/134 80/56/134
f 20/47/135 62/50/135 63/57/135
f 63/57/136 95/138/136 79/58/136
f 21/55/137 26/60/137 22/59/137
f 26/60/138 69/63/138 68/61/138
f 21/55/139 80/56/139 81/62/139
f 81/62/140 96/139/140 69/63/140
f 19/48/141 22/59/141 27/64/141
f 23/46/142 27/64/142 57/65/142
f 22/59/143 68/61/143 67/66/143
f 27/64/144 67/66/144 92/67/144
f 28/68/145 32/73/145 33/69/145
f 29/70/146 33/69/146 67/71/146
f 32/73/147 65/88/147 64/74/147
f 33/69/148 64/74/148 92/75/148
f 28/68/149 29/70/149 34/76/149
f 30/77/150 34/76/150 85/78/150
f 29/70/151 68/72/151 69/80/151
f 34/76/152 69/80/152 96/81/152
f 28/68/153 30/77/153 35/82/153
f 31/83/154 35/82/154 75/84/154
f 86/79/155 87/86/155 35/82/155
f 87/86/156 97/41/156 75/84/156
f 28/68/157 31/83/157 36/87/157
f 36/87/158 66/90/158 65/88/158
f 74/85/159 73/140/159 36/87/159
f 36/87/160 73/140/160 93/89/160
f 37/91/161 41/96/161 42/92/161
f 38/93/162 42/92/162 73/94/162
f 41/96/163 71/110/163 70/97/163
f 42/92/164 70/97/164 93/98/164
f 38/93/165 43/100/165 39/99/165
f 43/100/166 88/102/166 89/33/166
f 74/95/167 75/141/167 43/100/167
f 43/100/168 75/141/168 97/101/168
f 37/91/169 39/99/169 44/103/169
f 40/104/170 44/103/170 78/105/170
f 39/99/171 89/33/171 90/107/171
f 44/103/172 90/107/172 98/108/172
f 40/104/173 45/111/173 41/96/173
f 41/96/174 45/111/174 72/109/174
f 77/106/175 76/142/175 45/111/175
f 45/111/176 76/142/176 94/21/176
f 46/112/177 50/116/177 51/113/177
f 51/113/178 63/118/178 62/50/178
f 83/115/179 82/117/179 51/113/179
f 82/117/180 95/30/180 63/118/180
f 47/114/181 52/120/181 48/119/181
f 52/120/182 58/124/182 59/121/182
f 47/114/183 62/50/183 61/122/183
f 52/120/184 61/122/184 91/123/184
f 46/112/185 48/119/185 53/125/185
f 49/126/186 53/125/186 76/127/186
f 48/119/187 59/121/187 60/128/187
f 53/125/188 60/128/188 94/129/188
f 46/112/189 49/126/189 54/130/189
f 50/116/190 54/130/190 84/131/190
f 77/106/191 78/132/191 54/130/191
f 78/132/192 98/143/192 84/131/192
